<?xml version="1.0" encoding="UTF-8"?>
<svg width="72px" height="72px" viewBox="0 0 72 72" version="1.1" xmlns="http://www.w3.org/2000/svg" xmlns:xlink="http://www.w3.org/1999/xlink">
    <!-- Generator: Sketch 55.2 (78181) - https://sketchapp.com -->
    <title>财资管理</title>
    <desc>Created with Sketch.</desc>
    <defs>
        <linearGradient x1="50%" y1="97.0412796%" x2="50%" y2="0%" id="linearGradient-1">
            <stop stop-color="#37B6F7" offset="0%"></stop>
            <stop stop-color="#4FD8FF" offset="100%"></stop>
        </linearGradient>
        <linearGradient x1="50%" y1="97.0412796%" x2="50%" y2="0%" id="linearGradient-2">
            <stop stop-color="#37B6F7" offset="0%"></stop>
            <stop stop-color="#4FD8FF" offset="100%"></stop>
        </linearGradient>
    </defs>
    <g id="财资管理" stroke="none" stroke-width="1" fill="none" fill-rule="evenodd">
        <g transform="translate(9.000000, 9.000000)" id="形状结合">
            <path d="M31.024611,32.3295851 L25.473897,32.3295851 L25.473897,30.5551865 L31.2450096,30.526098 C31.7687406,30.4873133 32.1867182,30.29339 32.4989425,29.944328 C32.8111667,29.595266 32.9874224,29.1686346 33.0277094,28.664434 C32.9874224,28.1796256 32.8162026,27.7820828 32.5140501,27.4718054 C32.2118976,27.1615281 31.7989559,26.9869971 31.2752249,26.9482124 L26.8335832,26.9482124 L31.5169469,19.6179102 C31.9198169,19.1137095 32.1212519,18.5804204 32.1212519,18.0180427 C32.0608214,17.6108037 31.9651398,17.281134 31.834207,17.0290337 C31.7032743,16.7769333 31.5421263,16.58301 31.350763,16.4472636 C31.1593998,16.3115173 30.9378213,16.2145556 30.6860275,16.1563786 C30.4342338,16.0982016 30.1572607,16.059417 29.8551082,16.0400246 C29.3716642,16.0982016 28.9385789,16.2533403 28.5558524,16.5054406 C28.1731259,16.757541 27.8609017,17.048426 27.6191797,17.3780957 L22.573233,25.5228759 L17.9805151,17.4362727 C17.7387931,17.106603 17.4265689,16.8011737 17.0438424,16.5199849 C16.6611159,16.2387961 16.2280306,16.0788093 15.7445866,16.0400246 C14.9187031,16.1369863 14.3546852,16.3551501 14.0525327,16.6945159 C13.7503802,17.0338817 13.5489452,17.4750573 13.4482277,18.0180427 C13.4280842,18.444674 13.5086582,18.8373688 13.6899497,19.196127 C13.8712412,19.5548851 14.0626044,19.8506182 14.2640394,20.0833262 L18.3128828,26.9482124 L13.9618869,26.9482124 C13.4180124,26.9869971 13.0000348,27.1615281 12.7079541,27.4718054 C12.4158733,27.7820828 12.2396177,28.1796256 12.1791872,28.664434 C12.2396177,29.1686346 12.4158733,29.5855698 12.7079541,29.9152395 C13.0000348,30.2449092 13.4180124,30.4291363 13.9618869,30.467921 L19.7934301,30.4970095 L19.7934301,32.3295851 L13.9618869,32.3295851 C13.4180124,32.3683697 13.0000348,32.5429007 12.7079541,32.8531781 C12.4158733,33.1634554 12.2396177,33.5609983 12.1791872,34.0458066 C12.2396177,34.530615 12.4158733,34.9717905 12.7079541,35.3693334 C13.0000348,35.7668762 13.4180124,35.98504 13.9618869,36.0238247 L19.7934301,36.0238247 L19.7934301,39.0490287 C19.8337171,39.8828991 20.1006184,40.5034538 20.5941342,40.9106928 C21.0876499,41.3179318 21.7775648,41.5215513 22.6638788,41.5215513 C24.4566502,41.5215513 25.393323,40.6973771 25.473897,39.0490287 L25.473897,35.9656477 L29.2898586,35.9847813 C28.777204,37.5535242 28.5,39.2287649 28.5,40.96875 C28.5,46.0048178 30.8221567,50.4985168 34.4541232,53.4375 L8,53.4375 C3.581722,53.4375 -2.31790157e-13,49.855778 -2.34479103e-13,45.4375 L-2.34479103e-13,8 C-2.35908364e-13,3.581722 3.581722,2.21279066e-14 8,2.13162821e-14 L29.3464624,2.13162821e-14 L29.3464624,12.4651412 C29.3464624,12.7412836 29.5703201,12.9651412 29.8464624,12.9651412 L46.3125,12.9651412 L46.3125,25.0353419 C45.7276553,24.9706906 45.1333287,24.9375 44.53125,24.9375 C38.85863,24.9375 33.8741533,27.883792 31.024611,32.3295851 Z M33.8941735,0.200662648 C33.8941735,0.178935177 33.90125,0.157798825 33.9143324,0.140451371 C33.9475862,0.0963563464 34.0102898,0.0875677728 34.0543848,0.120821543 L45.4728518,8.73193071 C45.4979081,8.75082664 45.5126405,8.7803891 45.5126405,8.81177181 C45.5126405,8.86700029 45.467869,8.91177181 45.4126405,8.91177181 L34.1941735,8.91177181 C34.0284881,8.91177181 33.8941735,8.77745724 33.8941735,8.61177181 L33.8941735,0.200662648 Z" fill="url(#linearGradient-1)"></path>
            <path d="M44.5887097,53.3225806 C37.7341433,53.3225806 32.1774194,47.7658567 32.1774194,40.9112903 C32.1774194,34.056724 37.7341433,28.5 44.5887097,28.5 C51.443276,28.5 57,34.056724 57,40.9112903 C57,47.7658567 51.443276,53.3225806 44.5887097,53.3225806 Z M52.359451,38.0776927 C53.0114995,37.4256703 53.0114995,36.3684982 52.3594771,35.7164497 C51.7074286,35.0644274 50.6502826,35.0644274 49.9982341,35.7164497 L42.8303707,42.8843131 L39.001823,39.0557393 C38.3497746,38.403717 37.2926024,38.403717 36.6405801,39.0557393 C35.9885316,39.7077878 35.9885316,40.7649339 36.6405801,41.4169823 L41.6397314,46.4161858 C41.6430446,46.4195512 41.646123,46.4230731 41.6494623,46.4264124 C41.9755648,46.7524888 42.4029678,46.9154357 42.8303447,46.9154357 C43.2577476,46.9154357 43.6851506,46.7524888 44.011227,46.4264124 C44.0145663,46.4230731 44.0176447,46.4195512 44.0209579,46.4161858 L52.359451,38.0776927 Z" fill="url(#linearGradient-2)"></path>
        </g>
    </g>
</svg>