<?xml version="1.0" encoding="UTF-8"?>
<svg width="72px" height="72px" viewBox="0 0 72 72" version="1.1" xmlns="http://www.w3.org/2000/svg" xmlns:xlink="http://www.w3.org/1999/xlink">
    <!-- Generator: Sketch 55.2 (78181) - https://sketchapp.com -->
    <title>供应链</title>
    <desc>Created with Sketch.</desc>
    <defs>
        <linearGradient x1="50%" y1="100%" x2="50%" y2="0%" id="linearGradient-1">
            <stop stop-color="#FD785E" offset="0%"></stop>
            <stop stop-color="#FB9E68" offset="100%"></stop>
        </linearGradient>
    </defs>
    <g id="供应链" stroke="none" stroke-width="1" fill="none" fill-rule="evenodd">
        <path d="M61.4474743,33.8242486 C60.8415171,43.7283716 54.8644395,52.1367198 46.4710328,56.0208103 C46.0554734,61.7968658 41.2626946,66.2019223 35.6212706,65.9928573 C29.9798466,65.7837923 25.5093203,61.0354478 25.501013,55.2436843 C25.4982013,50.2632546 28.8235368,45.9301891 33.5430279,44.7645706 C38.2625189,43.5989521 43.145521,45.9047249 45.3521118,50.3408664 C50.9775303,47.2938807 54.8593423,41.6882235 55.8123726,35.2353861 C57.7684593,35.1914242 59.6916065,34.7098313 61.4474743,33.8242486 L61.4474743,33.8242486 Z M16.5016509,10.6166538 C20.3155881,10.6184223 23.8286422,12.7420291 25.6785024,16.1639708 C27.5283625,19.5859125 27.4240629,23.7679494 25.4060494,27.088349 C23.3880358,30.4087486 19.7737232,32.3452429 15.9646888,32.1468878 L15.9646888,32.1607376 C15.9646888,38.9409685 19.1654625,44.9548455 24.1016137,48.6988995 C23.1876049,50.4535614 22.6505919,52.3887611 22.526725,54.3742267 C15.3062353,49.7545596 10.5020748,41.5324139 10.5020748,32.1607376 C10.5020748,31.526726 10.5245732,30.8988698 10.5665703,30.2756303 C6.76946836,27.6070015 5.10909163,22.7121949 6.47087991,18.2014956 C7.83266819,13.6907963 11.8991032,10.6159314 16.5016509,10.6166538 Z M36.0002728,6.00003216 C41.8453597,6.00003216 47.231479,8.01751415 51.5316751,11.4122462 C56.3855549,9.37916768 61.9572961,11.3313824 64.5851625,15.985899 C67.2130289,20.6404156 66.0914887,26.5704641 61.9576157,29.8788294 C57.8237427,33.1871948 51.9447116,32.8597487 48.1842091,29.1116881 C44.4237066,25.3636275 43.9344564,19.3438623 47.0379927,15.0085693 C43.7661244,12.7828448 39.9259836,11.5991042 36.0002728,11.6061429 C32.997485,11.6061429 30.1506862,12.2832427 27.5933669,13.4989446 C26.4787427,11.8488373 25.0284962,10.4664419 23.3426673,9.44711794 C27.1951699,7.18148398 31.5597613,5.99287216 36.0002728,6.00003216 Z" fill="url(#linearGradient-1)"></path>
    </g>
</svg>