<?xml version="1.0" encoding="UTF-8"?>
<svg width="72px" height="72px" viewBox="0 0 72 72" version="1.1" xmlns="http://www.w3.org/2000/svg" xmlns:xlink="http://www.w3.org/1999/xlink">
    <!-- Generator: Sketch 55.2 (78181) - https://sketchapp.com -->
    <title>资产管理</title>
    <desc>Created with Sketch.</desc>
    <defs>
        <linearGradient x1="50%" y1="100%" x2="50%" y2="0%" id="linearGradient-1">
            <stop stop-color="#FD785E" offset="0%"></stop>
            <stop stop-color="#FB9E68" offset="100%"></stop>
        </linearGradient>
        <linearGradient x1="50%" y1="100%" x2="50%" y2="0%" id="linearGradient-2">
            <stop stop-color="#FF785E" offset="0%"></stop>
            <stop stop-color="#FF9F68" offset="100%"></stop>
        </linearGradient>
    </defs>
    <g id="资产管理" stroke="none" stroke-width="1" fill="none" fill-rule="evenodd">
        <g transform="translate(9.000000, 7.000000)" id="形状结合">
            <path d="M27.6062608,48.9472058 L23.0129544,48.9472058 C12.4081027,48.3682809 3.78874531,44.2111023 1.15292367,38.6103708 C1.9470898,46.0298945 12.8324517,51.7368542 26.30602,51.7674065 C27.0891138,51.7685377 27.8719372,51.7488323 28.6536605,51.7083368 C29.6282078,53.7117952 30.9963464,55.4884636 32.6575036,56.9377691 C31.2989491,57.1311667 29.9313352,57.2592639 28.559378,57.3214577 L24.0209246,57.3214577 C11.1355257,56.686709 1.10649606,50.7518086 1.10649606,43.356986 L1.10649606,38.510213 C0.593304198,37.3859853 0.320687911,36.2044564 0.320687911,34.9827341 L0.320687911,29.3652079 C0.320687911,36.5696058 9.65149398,42.3140817 21.9656191,43.2662048 L27.0454332,43.2662048 C27.0153227,43.6735345 27,44.0849778 27,44.5 C27,46.0408569 27.211211,47.5323829 27.6062608,48.9472058 Z M27.8606986,39.2264593 C27.0814197,39.2698247 26.3010219,39.2940291 25.5202118,39.2990253 C11.7779022,39.2990253 0.765011977,33.3958623 0.130263279,25.8106152 L0.130263279,19.5266029 C0.320687911,27.2387998 11.5240027,33.6180244 25.5202118,33.5862869 C27.5789069,33.5816187 29.5771769,33.4437404 31.4888629,33.1869941 C29.8778357,34.8968025 28.6278368,36.9505684 27.8606986,39.2264593 Z M45.5501967,28.1261264 C48.8472676,25.7610909 50.8309715,22.7865483 50.9101605,19.5266029 L50.9101605,25.87409 C50.7659147,27.0728938 50.4161976,28.2239263 49.8877054,29.2819634 C48.5252538,28.7093949 47.0697561,28.3144544 45.5501967,28.1261264 Z M50.6816025,29.640686 C50.6852121,29.5490009 50.6873474,29.4571636 50.6879984,29.3652079 L50.6879984,29.6437846 C50.6858667,29.6427512 50.6837347,29.6417184 50.6816025,29.640686 Z M26.30602,28.3769163 C12.3732857,28.3769163 0.916071429,21.9976917 0.916071429,14.3172323 C0.916071429,6.63677287 12.1828611,0.289285714 26.30602,0.289285714 C40.4291789,0.289285714 51.6959686,6.44634818 51.6959686,14.3172323 C51.6959686,22.1881164 40.1118046,28.3769163 26.30602,28.3769163 Z" fill="url(#linearGradient-1)"></path>
            <path d="M43,57 C35.8202983,57 30,51.1797017 30,44 C30,36.8202983 35.8202983,31 43,31 C50.1797017,31 56,36.8202983 56,44 C56,51.1797017 50.1797017,57 43,57 Z M50.4028917,41.8686914 C50.7135066,41.5572229 50.7982739,41.0857201 50.6155952,40.6855667 C50.4329164,40.2854133 50.0211336,40.0405964 49.5823236,40.0712566 L36.570458,40.0712566 C36.1388381,40.0579932 35.7427091,40.3090999 35.5705298,40.7051124 C35.3983504,41.101125 35.484885,41.5620854 35.7889646,41.8686914 L40.8295972,47.4172948 L40.8295972,51.0903139 L45.3622591,52.4970021 L45.3622591,47.4563694 L50.4028917,41.8686914 Z" fill="url(#linearGradient-2)"></path>
        </g>
    </g>
</svg>