<?xml version="1.0" encoding="UTF-8"?>
<svg width="72px" height="72px" viewBox="0 0 72 72" version="1.1" xmlns="http://www.w3.org/2000/svg" xmlns:xlink="http://www.w3.org/1999/xlink">
    <!-- Generator: Sketch 55.2 (78181) - https://sketchapp.com -->
    <title>项目管理</title>
    <desc>Created with Sketch.</desc>
    <defs>
        <linearGradient x1="50%" y1="-8.06646416e-15%" x2="50%" y2="99.2134713%" id="linearGradient-1">
            <stop stop-color="#79F5F6" offset="0%"></stop>
            <stop stop-color="#36CDD2" offset="100%"></stop>
        </linearGradient>
    </defs>
    <g id="项目管理" stroke="none" stroke-width="1" fill="none" fill-rule="evenodd">
        <g transform="translate(9.000000, 9.000000)" fill="url(#linearGradient-1)" id="形状结合">
            <path d="M46.3125,25.0353419 C45.7276553,24.9706906 45.1333287,24.9375 44.53125,24.9375 C35.6774351,24.9375 28.5,32.1149351 28.5,40.96875 C28.5,46.0048178 30.8221567,50.4985168 34.4541232,53.4375 L8,53.4375 C3.581722,53.4375 1.00017066e-13,49.855778 9.9475983e-14,45.4375 L9.9475983e-14,8 C9.89349e-14,3.581722 3.581722,2.21279066e-14 8,2.13162821e-14 L29.3464624,2.13162821e-14 L29.3464624,12.4651412 C29.3464624,12.7412836 29.5703201,12.9651412 29.8464624,12.9651412 L46.3125,12.9651412 L46.3125,25.0353419 Z M9.58189655,17.7490962 C8.22499005,17.7490962 7.125,18.8490863 7.125,20.2059928 C7.125,21.5628993 8.22499005,22.6628893 9.58189655,22.6628893 L33.1681034,22.6628893 C34.5250099,22.6628893 35.625,21.5628993 35.625,20.2059928 C35.625,18.8490863 34.5250099,17.7490962 33.1681034,17.7490962 L9.58189655,17.7490962 Z M9.5,27 C8.11928813,27 7,28.1192881 7,29.5 C7,30.8807119 8.11928813,32 9.5,32 L16.5,32 C17.8807119,32 19,30.8807119 19,29.5 C19,28.1192881 17.8807119,27 16.5,27 L9.5,27 Z M9.58189655,35.8033231 C8.22499005,35.8033231 7.125,36.9033132 7.125,38.2602197 C7.125,39.6171262 8.22499005,40.7171162 9.58189655,40.7171162 L22.6681034,40.7171162 C24.0250099,40.7171162 25.125,39.6171262 25.125,38.2602197 C25.125,36.9033132 24.0250099,35.8033231 22.6681034,35.8033231 L9.58189655,35.8033231 Z M33.8941735,0.200662648 C33.8941735,0.178935177 33.90125,0.157798825 33.9143324,0.140451371 C33.9475862,0.0963563464 34.0102898,0.0875677728 34.0543848,0.120821543 L45.4728518,8.73193071 C45.4979081,8.75082664 45.5126405,8.7803891 45.5126405,8.81177181 C45.5126405,8.86700029 45.467869,8.91177181 45.4126405,8.91177181 L34.1941735,8.91177181 C34.0284881,8.91177181 33.8941735,8.77745724 33.8941735,8.61177181 L33.8941735,0.200662648 Z M44.5887097,53.3225806 C37.7341433,53.3225806 32.1774194,47.7658567 32.1774194,40.9112903 C32.1774194,34.056724 37.7341433,28.5 44.5887097,28.5 C51.443276,28.5 57,34.056724 57,40.9112903 C57,47.7658567 51.443276,53.3225806 44.5887097,53.3225806 Z M46.3841953,34.3527422 L46.3842102,34.3527422 C46.2745445,34.3491797 46.1708016,34.376982 46.0776125,34.4349023 C45.9844234,34.4928227 45.9125648,34.5621578 45.7802328,34.791375 L45.2972914,35.62785 C45.2522555,35.7063289 45.2201039,35.7690734 45.1972445,35.8220063 C44.8099484,35.7843855 44.4195829,35.792147 44.0340883,35.8451328 C44.0128469,35.8011508 43.9859352,35.7508602 43.9518242,35.691782 L43.4735289,34.8633375 L43.4688828,34.8553219 C43.3394898,34.6325023 43.2682398,34.5641172 43.1761344,34.5068648 C43.0829453,34.4489445 42.9792172,34.421157 42.8695516,34.4247195 C42.7598859,34.428282 42.6629859,34.4524031 42.4337688,34.5847352 L40.2426828,35.8497641 L40.2346672,35.8544102 C40.0118477,35.9837883 39.9434625,36.0550383 39.886225,36.1471438 C39.8283047,36.2403328 39.8005172,36.3440609 39.8040797,36.4537414 C39.8076422,36.563407 39.8317484,36.660307 39.9640953,36.8895242 L40.4423906,37.7179539 L40.4475859,37.7269195 C40.5077625,37.8304844 40.5553664,37.9006063 40.5983539,37.9517281 C40.520057,38.0649731 40.4464056,38.1813605 40.3775828,38.3006008 C40.2667328,38.4924548 40.1686696,38.6914176 40.0840328,38.8961914 C40.0127531,38.8805906 39.9189555,38.8725305 39.7757875,38.8725305 L38.8191969,38.8725305 C38.554518,38.8725305 38.4585531,38.9000953 38.3617867,38.9518406 C38.2650352,39.0035859 38.1890945,39.0795266 38.1373492,39.1762781 C38.0856039,39.2730445 38.0580539,39.3690242 38.0580539,39.6336883 L38.0580539,42.1730086 C38.0586922,42.4306516 38.0862125,42.5255031 38.1373492,42.6211414 C38.1890945,42.717893 38.2650352,42.7938187 38.3617867,42.8455789 C38.4585531,42.8973242 38.5545328,42.9248742 38.8191969,42.9248742 L39.7757875,42.9248742 C39.9749609,42.9248742 40.0786148,42.9092734 40.158875,42.8795117 C40.3008848,43.1914053 40.474637,43.487845 40.677382,43.7641398 C40.6468039,43.8071273 40.6131383,43.8601938 40.5741883,43.9272875 L40.091232,44.7637328 C39.9589,44.99295 39.9347789,45.08985 39.9312164,45.1995156 C39.9276539,45.3091812 39.9554563,45.4129094 40.0133766,45.5061133 C40.0712969,45.5993023 40.140632,45.6711609 40.3698344,45.803493 L42.5609203,47.0685219 L42.5689508,47.0731234 C42.7924086,47.201418 42.8883289,47.2250047 42.9966883,47.2285375 C43.1063688,47.2321 43.2100969,47.2042977 43.3032859,47.1463773 C43.3964898,47.088457 43.4683336,47.0191219 43.6006805,46.7899047 L44.0789758,45.961475 L44.0842305,45.9523312 C44.1240859,45.8828625 44.1537734,45.8257586 44.1758906,45.7768039 C44.531317,45.8146937 44.8897838,45.8143205 45.2451305,45.7756906 C45.2658523,45.8181289 45.2917992,45.8663859 45.3242625,45.9226141 L45.8025578,46.7510586 L45.8072039,46.7590742 C45.9365969,46.9818937 46.0078469,47.0502789 46.0999523,47.1075164 C46.1931414,47.1654367 46.2968695,47.1932242 46.4065352,47.1896617 C46.5162008,47.1860992 46.6131156,47.1619781 46.842318,47.0296461 L49.0334039,45.764632 L49.0414195,45.7599859 C49.2642391,45.6306078 49.3326242,45.559343 49.3898617,45.4672523 C49.447782,45.3740484 49.4755844,45.2703203 49.472007,45.1606547 C49.4684445,45.0509891 49.4443383,44.9540891 49.3119914,44.7248719 L48.8336961,43.8964422 L48.8277289,43.8861258 C48.7980711,43.8351523 48.7714711,43.7922984 48.7469789,43.755857 L48.7470977,43.7559758 C48.8533663,43.6103267 48.9517724,43.4591005 49.0418945,43.3029445 C49.1398985,43.133318 49.2279086,42.9581107 49.305475,42.778218 C49.3688727,42.7872133 49.4488953,42.7918148 49.5571508,42.7918148 L50.5137414,42.7918148 C50.7784203,42.7918148 50.8743852,42.7642648 50.9711516,42.7125047 C51.067918,42.6607742 51.1438438,42.5848336 51.1955891,42.4880672 C51.2473492,42.3913156 51.2748992,42.2953359 51.2748992,42.0306719 L51.2748992,39.5006141 C51.2748992,39.23595 51.2473492,39.1399703 51.1955891,39.0432039 C51.1438438,38.9464523 51.067918,38.8705117 50.9711516,38.8187664 C50.8743852,38.7670211 50.7784055,38.7394563 50.5137414,38.7394563 L49.5571508,38.7394563 C49.4312313,38.7394563 49.3434898,38.7457055 49.2756688,38.757818 L49.2758172,38.7577586 C49.1247191,38.4192554 48.9363511,38.0986539 48.7142039,37.8018953 C48.7431492,37.7599617 48.7749742,37.7090031 48.8113563,37.6459617 L49.2896664,36.817532 C49.4219984,36.5883148 49.4461195,36.4914148 49.449682,36.3817492 C49.4532445,36.2720836 49.425457,36.1683555 49.3675367,36.0751516 C49.3096164,35.9819625 49.2402664,35.9101039 49.0110492,35.7777719 L46.8119477,34.5081266 C46.5884898,34.3798469 46.4925844,34.3562602 46.3841953,34.3527422 Z M44.6940563,38.4440805 C45.9893367,38.4440805 47.0393688,39.4941125 47.0393688,40.789393 C47.0393688,42.0846734 45.9893367,43.1347055 44.6940563,43.1347055 C43.3987758,43.1347055 42.3487438,42.0846734 42.3487438,40.789393 C42.3487438,39.4941125 43.3987758,38.4440805 44.6940563,38.4440805 Z"></path>
        </g>
    </g>
</svg>