<?xml version="1.0" encoding="UTF-8"?>
<svg width="72px" height="72px" viewBox="0 0 72 72" version="1.1" xmlns="http://www.w3.org/2000/svg" xmlns:xlink="http://www.w3.org/1999/xlink">
    <!-- Generator: Sketch 55.2 (78181) - https://sketchapp.com -->
    <title>生产制造</title>
    <desc>Created with Sketch.</desc>
    <defs>
        <linearGradient x1="50%" y1="97.0412796%" x2="50%" y2="0%" id="linearGradient-1">
            <stop stop-color="#37B6F7" offset="0%"></stop>
            <stop stop-color="#4FD8FF" offset="100%"></stop>
        </linearGradient>
    </defs>
    <g id="生产制造" stroke="none" stroke-width="1" fill="none" fill-rule="evenodd">
        <g transform="translate(10.000000, 10.000000)" fill="url(#linearGradient-1)" id="形状结合">
            <path d="M11.0335583,17.8432441 L6.52301348,17.8432441 L6.52301348,16.2442067 C6.52301348,14.7305022 7.57472486,13.4301031 9.03172694,13.1002445 L9.04929093,13.096285 L9.05132147,13.0784164 C9.73930665,7.12060086 14.240308,2.28241164 20.1054984,1.14633219 L21.142793,5.55490139 L21.142793,1.62441791 C21.142793,0.741290316 21.8587028,0.0253804983 22.7418304,0.0253804983 C23.624958,0.0253804983 24.3408678,0.741290316 24.3408678,1.62441791 L24.3408678,5.55490139 L25.3781623,1.14633219 C31.243245,2.28241164 35.744292,7.12060086 36.4323838,13.0784164 L36.4344143,13.096285 L36.4519276,13.1002445 C37.9089297,13.4301046 38.9606411,14.7305022 38.9606411,16.2442067 L38.9606411,17.8432441 L34.4501634,17.8432441 C34.4507271,17.851682 34.4512853,17.8601245 34.4518377,17.8685716 L11.0318839,17.8685716 C11.0324364,17.8601245 11.0329946,17.851682 11.0335587,17.8432441 Z M32.5707254,34.183946 C32.1900022,36.7375299 32.6881912,39.3619638 33.9946282,41.6055328 L30.8070093,47.1267306 C29.9090637,48.681959 29.9658626,50.5263361 30.7954353,51.9814085 L3.25129779,51.9814085 C1.45697578,51.9814085 0.00246197943,50.526844 0.00246197943,48.7325727 L0.00246197943,48.3326328 C0.0036362515,47.2211773 0.00432265737,46.1097166 0.00483739196,44.998261 C0.00483739196,41.0668127 4.24776811,37.878366 11.4061046,34.4602253 C13.0626569,33.6599982 16.3559619,32.389851 16.345506,32.3948276 C16.4145437,32.1156309 16.2744376,31.8410015 15.9757983,31.4430183 C15.833763,31.253672 15.6655341,31.0489446 15.4181129,30.7613198 C15.3696341,30.7050237 15.3363844,30.6664944 15.2515593,30.568623 C15.1653636,30.4693811 15.1653636,30.4693811 15.0765791,30.3668907 C14.9521791,30.2237681 14.8287877,30.079767 14.7064174,29.9349001 C14.3309232,29.4893018 14.026801,29.09873 13.7450155,28.6874979 C11.7461159,25.7676082 11.0627976,22.693069 10.9982748,19.2454244 L34.485849,19.2454244 C34.4213801,22.6942675 33.738465,25.7677757 31.738956,28.6875995 C31.4574239,29.0989326 31.1530971,29.4897563 30.7771478,29.935865 C30.6549117,30.0806097 30.5316559,30.2244929 30.407391,30.3675022 L30.2325631,30.569133 C30.1769688,30.6332342 30.1214847,30.6974157 30.0661036,30.7616861 C29.8189383,31.0491068 29.6508618,31.2536818 29.508926,31.4429275 C29.2103375,31.8410113 29.0701298,32.1156377 29.03089,32.3417871 C29.1036845,32.3775751 30.9493267,33.0914056 32.5709059,33.7840677 L32.5707254,34.183946 Z M45.4815685,47.1465353 L45.4837522,48.732527 C45.4850205,50.5267982 44.0314212,51.9823785 42.2372007,51.983648 L42.2349164,51.983648 L42.2349164,51.9813636 L41.1341706,51.9813636 L43.856846,47.2655777 C44.400567,47.2647837 44.943536,47.2250021 45.4815639,47.1465353 Z M46.4540306,28.1473179 L46.4540205,28.147323 L44.0704423,32.2757825 C43.6218504,33.0527111 43.8880511,34.0461951 44.6649797,34.4947886 C45.4419591,34.9433805 46.4354431,34.677129 46.8839858,33.9002004 L49.2624401,29.7806225 C52.0929903,32.2955161 52.8666689,36.5332722 50.8993959,39.9406422 C49.0786321,43.0943494 45.4677814,44.5702827 42.0912255,43.8259455 L37.8408858,51.1877627 C37.3922939,51.9646918 36.3988084,52.2308936 35.6218797,51.7823509 L34.2150851,50.9701394 C33.438156,50.5215475 33.1719543,49.5280619 33.6204969,48.7511333 L37.8629198,41.4030779 C35.4994917,38.851571 34.9574418,34.9630735 36.7875545,31.7931214 C38.7638107,28.3702692 42.8486846,26.9237778 46.4540306,28.1473179 Z"></path>
        </g>
    </g>
</svg>