<?xml version="1.0" encoding="UTF-8"?>
<svg width="72px" height="72px" viewBox="0 0 72 72" version="1.1" xmlns="http://www.w3.org/2000/svg" xmlns:xlink="http://www.w3.org/1999/xlink">
    <!-- Generator: Sketch 55.2 (78181) - https://sketchapp.com -->
    <title>人力云</title>
    <desc>Created with Sketch.</desc>
    <defs>
        <linearGradient x1="50%" y1="-2.48949813e-15%" x2="50%" y2="100%" id="linearGradient-1">
            <stop stop-color="#FFC37D" offset="0%"></stop>
            <stop stop-color="#F89030" offset="100%"></stop>
        </linearGradient>
    </defs>
    <g id="人力云" stroke="none" stroke-width="1" fill="none" fill-rule="evenodd">
        <g transform="translate(7.000000, 12.000000)" fill="url(#linearGradient-1)" id="形状结合">
            <path d="M50,9.79717439e-16 C54.418278,1.25025894e-15 58,3.581722 58,8 L58,42 C58,46.418278 54.418278,50 50,50 L8,50 C3.581722,50 0,46.418278 0,42 L-7.10542736e-15,8 C-7.10542736e-15,3.581722 3.581722,5.8526925e-15 8,6.123234e-15 L50,9.79717439e-16 Z M28.750016,8 C24.6250112,8 21.050007,11.5750042 21.050007,16.2500096 C21.050007,20.6500147 24.6250112,24.5000192 28.750016,24.5000192 C32.8750208,24.5000192 36.450025,20.6500147 36.450025,16.2500096 C36.450025,11.5750042 33.1500211,8 28.750016,8 Z M42.500032,37.9750349 L42.7750323,37.9750349 L42.7750323,34.9500314 C42.7750323,30.5500262 39.2000282,26.9750221 35.0750234,26.7000218 L31.7750195,38.8000358 L29.575017,30.8250266 L29.575017,30.0000256 L31.5000192,26.7000218 L26.0000128,26.7000218 L28.2000154,30.0000256 L28.2000154,30.8250266 L26.0000128,38.8000358 L22.700009,26.7000218 C18.3000038,26.9750221 15,30.5500262 15,34.9500314 L15,37.9750349 C15,39.6250368 16.1000013,41.0000384 17.7500032,41.0000384 L39.7500288,41.0000384 C41.1250304,41.0000384 42.500032,39.6250368 42.500032,37.9750349 Z"></path>
        </g>
    </g>
</svg>