<?xml version="1.0" encoding="UTF-8"?>
<svg width="72px" height="72px" viewBox="0 0 72 72" version="1.1" xmlns="http://www.w3.org/2000/svg" xmlns:xlink="http://www.w3.org/1999/xlink">
    <!-- Generator: Sketch 63.1 (92452) - https://sketch.com -->
    <title>移动应用</title>
    <desc>Created with Sketch.</desc>
    <defs>
        <linearGradient x1="50%" y1="-2.51534904e-15%" x2="50%" y2="99.1040797%" id="linearGradient-1">
            <stop stop-color="#AAF7C7" offset="0%"></stop>
            <stop stop-color="#58C881" offset="100%"></stop>
        </linearGradient>
    </defs>
    <g id="移动应用" stroke="none" stroke-width="1" fill="none" fill-rule="evenodd">
        <path d="M52,8 C56.418278,8 60,11.581722 60,16 L60,56 C60,60.418278 56.418278,64 52,64 L20,64 C15.581722,64 12,60.418278 12,56 L12,16 C12,11.581722 15.581722,8 20,8 L52,8 Z M36.4897959,53.3793103 C34.866755,53.3793103 33.5510204,54.6761407 33.5510204,56.2758621 C33.5510204,57.8755834 34.866755,59.1724138 36.4897959,59.1724138 C38.1128368,59.1724138 39.4285714,57.8755834 39.4285714,56.2758621 C39.4285714,54.6761407 38.1128368,53.3793103 36.4897959,53.3793103 Z M50.122449,13.7931034 L21.877551,13.7931034 C19.7353556,13.7931034 17.9864721,15.4770719 17.8824463,17.5934631 L17.877551,17.7931034 L17.877551,45.5172414 C17.877551,47.6594368 19.5615195,49.4083203 21.6779107,49.5123461 L21.877551,49.5172414 L50.122449,49.5172414 C52.2646444,49.5172414 54.0135279,47.8332729 54.1175537,45.7168817 L54.122449,45.5172414 L54.122449,17.7931034 C54.122449,15.5839644 52.331588,13.7931034 50.122449,13.7931034 Z M32,38 C33.1045695,38 34,38.8954305 34,40 L34,44 C34,45.1045695 33.1045695,46 32,46 L28,46 C26.8954305,46 26,45.1045695 26,44 L26,40 C26,38.8954305 26.8954305,38 28,38 L32,38 Z M45,38 C46.1045695,38 47,38.8954305 47,40 L47,44 C47,45.1045695 46.1045695,46 45,46 L41,46 C39.8954305,46 39,45.1045695 39,44 L39,40 C39,38.8954305 39.8954305,38 41,38 L45,38 Z M45,25 C46.1045695,25 47,25.8954305 47,27 L47,31 C47,32.1045695 46.1045695,33 45,33 L41,33 C39.8954305,33 39,32.1045695 39,31 L39,27 C39,25.8954305 39.8954305,25 41,25 L45,25 Z" id="形状结合" fill="url(#linearGradient-1)"></path>
    </g>
</svg>