<?xml version="1.0" encoding="UTF-8"?>
<svg width="72px" height="72px" viewBox="0 0 72 72" version="1.1" xmlns="http://www.w3.org/2000/svg" xmlns:xlink="http://www.w3.org/1999/xlink">
    <!-- Generator: Sketch 63.1 (92452) - https://sketch.com -->
    <title>3</title>
    <desc>Created with Sketch.</desc>
    <defs>
        <linearGradient x1="50%" y1="-8.06646416e-15%" x2="50%" y2="99.2134713%" id="linearGradient-1">
            <stop stop-color="#79F5F6" offset="0%"></stop>
            <stop stop-color="#36CDD2" offset="100%"></stop>
        </linearGradient>
    </defs>
    <g id="3" stroke="none" stroke-width="1" fill="none" fill-rule="evenodd">
        <g id="编组-2" transform="translate(10.000000, 10.000000)" fill="url(#linearGradient-1)">
            <path d="M44,4.53243112e-15 C48.3349143,4.79786806e-15 51.8645429,3.44783777 51.9961932,7.75082067 L52,8 L52,44 C52,48.3349143 48.5521622,51.8645429 44.2491793,51.9961932 L44,52 L8,52 C3.66508574,52 0.135457134,48.5521622 0.00380682464,44.2491793 L0,44 L-7.10542736e-15,8 C-7.10542736e-15,3.66508574 3.44783777,0.135457134 7.75082067,0.00380682464 L8,8.9411596e-15 L44,4.53243112e-15 Z M22.791507,31.5883852 L10.1899745,31.5883852 C8.88332376,31.5883852 7.82407407,32.6476349 7.82407407,33.9542856 C7.82407407,35.2609363 8.88332376,36.320186 10.1899745,36.320186 L10.1899745,36.320186 L22.791507,36.320186 C24.0981577,36.320186 25.1574074,35.2609363 25.1574074,33.9542856 C25.1574074,32.6476349 24.0981577,31.5883852 22.791507,31.5883852 L22.791507,31.5883852 Z M38.0942611,20.1907798 L34.704816,20.1907798 L36.060594,22.2244469 L36.060594,22.7328636 L34.704816,27.6475589 L32.671149,20.1907798 C30.034914,20.3555445 28.0394305,22.4425639 27.9306044,25.050194 L27.9259259,25.2749474 L27.9259259,27.1391422 C27.9259259,28.105134 28.5377208,28.9181771 29.4707079,28.9970665 L29.6206484,29.0033369 L43.1784286,29.0033369 C43.9834218,29.0033369 44.788415,28.2385934 44.8669019,27.2903114 L44.8731512,27.1391422 L45.0426234,27.1391422 L45.0426234,25.2749474 C45.0426234,22.6387124 42.9601808,20.483041 40.5084161,20.2095774 L40.2974003,20.1907798 L38.2637333,27.6475589 L36.9079553,22.7328636 L36.9079553,22.2244469 L38.0942611,20.1907798 Z M16.8518519,23.1111111 L10.1111111,23.1111111 C8.78153671,23.1111111 7.7037037,24.1889441 7.7037037,25.5185185 C7.7037037,26.8480929 8.78153671,27.9259259 10.1111111,27.9259259 L10.1111111,27.9259259 L16.8518519,27.9259259 C18.1814262,27.9259259 19.2592593,26.8480929 19.2592593,25.5185185 C19.2592593,24.1889441 18.1814262,23.1111111 16.8518519,23.1111111 L16.8518519,23.1111111 Z M22.791507,14.2550519 L10.1899745,14.2550519 C8.88332376,14.2550519 7.82407407,15.3143016 7.82407407,16.6209523 C7.82407407,17.927603 8.88332376,18.9868527 10.1899745,18.9868527 L10.1899745,18.9868527 L22.791507,18.9868527 C24.0981577,18.9868527 25.1574074,17.927603 25.1574074,16.6209523 C25.1574074,15.3143016 24.0981577,14.2550519 22.791507,14.2550519 L22.791507,14.2550519 Z M36.3995385,8.66666667 C33.8574548,8.66666667 31.6543155,10.8698059 31.6543155,13.7508342 C31.6543155,16.4623903 33.8574548,18.8350018 36.3995385,18.8350018 C38.9416223,18.8350018 41.1447616,16.4623903 41.1447616,13.7508342 C41.1447616,10.8698059 39.1110946,8.66666667 36.3995385,8.66666667 Z" id="形状结合"></path>
        </g>
    </g>
</svg>