<?xml version="1.0" encoding="UTF-8"?>
<svg width="72px" height="72px" viewBox="0 0 72 72" version="1.1" xmlns="http://www.w3.org/2000/svg" xmlns:xlink="http://www.w3.org/1999/xlink">
    <!-- Generator: Sketch 63.1 (92452) - https://sketch.com -->
    <title>2</title>
    <desc>Created with Sketch.</desc>
    <defs>
        <linearGradient x1="50%" y1="-2.48949813e-15%" x2="50%" y2="100%" id="linearGradient-1">
            <stop stop-color="#FFC37D" offset="0%"></stop>
            <stop stop-color="#F89030" offset="100%"></stop>
        </linearGradient>
    </defs>
    <g id="2" stroke="none" stroke-width="1" fill="none" fill-rule="evenodd">
        <g id="编组" transform="translate(6.000000, 13.000000)" fill="url(#linearGradient-1)">
            <g id="文件夹">
                <path d="M48.4515625,24.1 C53.9821765,24.1 58.465625,28.5315167 58.465625,33.9980695 C58.465625,34.4932622 58.4288347,34.9799616 58.3578083,35.455643 C60.5301282,36.6470254 62,38.9374382 62,41.5671815 C62,45.3455342 58.9657054,48.4233982 55.1742633,48.5500026 L54.93125,48.5540541 L31.36875,48.5540541 L31.3679018,48.4713855 C27.3717688,47.9059852 24.3,44.5089139 24.3,40.4027027 C24.3,37.1390035 26.2405562,34.3232956 29.0434162,33.0213419 C29.393383,29.0016598 32.8063577,25.8467181 36.9648438,25.8467181 C38.5522002,25.8467181 40.030931,26.3064131 41.2722043,27.0984637 C43.0907024,25.2490227 45.6353757,24.1 48.4515625,24.1 Z M40.9234375,3.19744231e-14 C45.3417155,3.11627986e-14 48.9234375,3.581722 48.9234375,8 L48.923,10.946 L24.7758243,10.9468085 C24.0781509,10.9468085 23.4091777,11.2363626 22.9166515,11.751521 L14.1094963,20.9633753 C13.4954221,21.6056669 13.4970446,22.6453359 14.1131203,23.285541 C14.7291959,23.925746 15.7264295,23.9240545 16.3405037,23.2817628 L24.9937869,14.2308511 L48.923,14.23 L48.9234375,14.2444219 L51.3156687,14.2444219 C54.0770925,14.2444219 56.3156687,16.4829981 56.3156687,19.2444219 L56.3153981,22.2067142 C54.2866738,20.6380131 51.7397621,19.7042553 48.9742187,19.7042553 C45.6015114,19.7042553 42.5539733,21.0930263 40.3751881,23.3277421 C38.8888167,22.3708015 37.1182158,21.8154255 35.2175781,21.8154255 C30.2373324,21.8154255 26.1499169,25.6286292 25.7291232,30.4878066 C22.3732721,32.0617545 20.05,35.4644892 20.05,39.4085106 C20.05,43.2494987 22.2534715,46.5771116 25.468256,48.2021402 L7.99999775,48.1888837 C3.58406904,48.1795672 0.00600373016,44.5988167 -1.91846539e-13,40.1828822 L-1.91846539e-13,8 C-1.94163978e-13,3.581722 3.581722,3.27860476e-14 8,3.19744231e-14 L40.9234375,3.19744231e-14 Z" id="形状结合"></path>
            </g>
        </g>
    </g>
</svg>