<?xml version="1.0" encoding="UTF-8"?>
<svg width="72px" height="72px" viewBox="0 0 72 72" version="1.1" xmlns="http://www.w3.org/2000/svg" xmlns:xlink="http://www.w3.org/1999/xlink">
    <!-- Generator: Sketch 63.1 (92452) - https://sketch.com -->
    <title>1</title>
    <desc>Created with Sketch.</desc>
    <defs>
        <linearGradient x1="50%" y1="97.0412796%" x2="50%" y2="0%" id="linearGradient-1">
            <stop stop-color="#37B6F7" offset="0%"></stop>
            <stop stop-color="#4FD8FF" offset="100%"></stop>
        </linearGradient>
    </defs>
    <g id="1" stroke="none" stroke-width="1" fill="none" fill-rule="evenodd">
        <path d="M56,11 C60.418278,11 64,14.581722 64,19 L64,46 C64,50.418278 60.418278,54 56,54 L43.1500617,54 L50.7174969,59.6334806 C50.9709832,59.8221852 51.1203565,60.1196036 51.1203565,60.4356173 C51.1203565,60.9484532 50.7343163,61.3711245 50.2369776,61.4288896 L50.1203565,61.4356173 L21.9610517,61.4356173 C21.6490668,61.4356173 21.3549578,61.2900088 21.1658055,61.041904 C20.8567198,60.6364865 20.9050292,60.0706365 21.2597349,59.7226186 L21.354765,59.6403712 L28.7530534,54 L16,54 C11.581722,54 8,50.418278 8,46 L8,19 C8,14.581722 11.581722,11 16,11 L56,11 Z M22.1344857,37.4466122 C21.9562171,37.9641706 22.1975139,38.5300071 22.7008482,38.7747253 L35.7895694,44.0527066 C36.0696543,44.1663392 36.3847499,44.1663392 36.6648349,44.0527066 L49.3036696,38.9511103 C49.8658172,38.6853244 50.0991411,38.028346 49.8248137,37.4837044 C49.5737482,36.9852525 48.9782514,36.7466797 48.4371567,36.9277711 L36.2149485,41.8597664 L23.5673611,36.7530821 C22.9740131,36.5612409 22.3324927,36.8717448 22.1344857,37.4466122 Z M22.1270432,31.823281 C21.9401305,32.3475228 22.1863725,32.9244708 22.7008482,33.1677183 L35.7895693,38.4456995 C36.0696543,38.5610281 36.3847499,38.5610281 36.6648349,38.4456995 L49.3036695,33.3457992 C49.8694686,33.0873894 50.1119253,32.4335211 49.8452073,31.8853417 C49.5962356,31.3736345 48.9865472,31.1291706 48.4371567,31.320764 L48.4371567,31.31398 L36.2149485,36.2442793 L23.5673611,31.1443791 C22.9761274,30.9465078 22.3312755,31.2504631 22.1270432,31.823281 Z M35.3186764,20.0830059 L22.7096008,25.154074 C22.4255799,25.2693739 22.2028358,25.4925391 22.0934139,25.7714213 C21.8450245,26.3276223 22.1090507,26.9736031 22.6831323,27.2142562 C22.689016,27.2167227 22.6949212,27.2191407 22.7008473,27.2215099 L35.7895694,32.5130587 C36.0696544,32.6283873 36.38475,32.6283873 36.664835,32.5130587 L49.3036696,27.3622781 C49.8827781,27.1258727 50.1544332,26.4793887 49.9104283,25.9183196 C49.7951112,25.6531565 49.5773569,25.4421862 49.3036696,25.3304589 L36.2149484,20.0830058 C35.9271118,19.9723314 35.606513,19.9723314 35.3186764,20.0830059 Z" id="形状结合" fill="url(#linearGradient-1)"></path>
        <g id="管理" transform="translate(22.000000, 20.000000)"></g>
    </g>
</svg>