<?xml version="1.0" encoding="UTF-8"?>
<svg width="72px" height="72px" viewBox="0 0 72 72" version="1.1" xmlns="http://www.w3.org/2000/svg" xmlns:xlink="http://www.w3.org/1999/xlink">
    <!-- Generator: Sketch 63.1 (92452) - https://sketch.com -->
    <title>5</title>
    <desc>Created with Sketch.</desc>
    <defs>
        <linearGradient x1="50%" y1="-2.51534904e-15%" x2="50%" y2="99.1040797%" id="linearGradient-1">
            <stop stop-color="#AAF7C7" offset="0%"></stop>
            <stop stop-color="#58C881" offset="100%"></stop>
        </linearGradient>
    </defs>
    <g id="5" stroke="none" stroke-width="1" fill="none" fill-rule="evenodd">
        <path d="M44.875,19.125 C49.293278,19.125 52.875,22.706722 52.875,27.125 L52.875,55 C52.875,59.418278 49.293278,63 44.875,63 L17,63 C12.581722,63 9,59.418278 9,55 L9,27.125 C9,22.706722 12.581722,19.125 17,19.125 L44.875,19.125 Z M43.6114037,43.6892567 L43.4861184,43.8043131 L35.0303794,52.2600521 L30.5139429,47.7435848 C29.7447386,46.9744112 28.4976205,46.9744112 27.728447,47.7435848 C26.9997271,48.4723047 26.9613734,49.6299278 27.6133859,50.4037955 L27.728447,50.5290808 L33.6372929,56.438573 C34.0219874,56.8232367 34.5261834,57.0154609 35.0303487,57.0154609 C35.5345447,57.0154609 36.0387407,56.8232367 36.4234044,56.438573 L36.4291556,56.4325525 L36.4348837,56.426509 L46.2715836,46.5898091 C47.0407879,45.8206355 47.0407879,44.5735175 46.2716144,43.8043131 C45.5428945,43.0756224 44.3852713,43.0372702 43.6114037,43.6892567 Z M57.5661934,9 C60.3276171,9 62.5661934,11.2385763 62.5661934,14 L62.5661934,47.875 C62.5661934,50.6364237 60.3276171,52.875 57.5661934,52.875 L55.8151934,52.874 L55.8161934,18.75 C55.8161934,17.1523191 54.5672734,15.8463391 52.9924661,15.7550927 L52.8161934,15.75 L18.6911934,15.75 L18.6911934,14 C18.6911934,11.2385763 20.9297696,9 23.6911934,9 L57.5661934,9 Z M26.5,39 L19.5,39 C18.1192881,39 17,40.1192881 17,41.5 C17,42.8254834 18.0315359,43.9100387 19.3356243,43.9946823 L19.5,44 L26.5,44 C27.8807119,44 29,42.8807119 29,41.5 C29,40.1192881 27.8807119,39 26.5,39 Z M32.6681034,29.8033231 L19.5818966,29.8033231 C18.2249901,29.8033231 17.125,30.9033132 17.125,32.2602197 C17.125,33.5628499 18.1387508,34.628706 19.4203549,34.7118902 L19.5818966,34.7171162 L32.6681034,34.7171162 C34.0250099,34.7171162 35.125,33.6171262 35.125,32.2602197 C35.125,30.9033132 34.0250099,29.8033231 32.6681034,29.8033231 Z" id="形状结合" fill="url(#linearGradient-1)"></path>
    </g>
</svg>