<?xml version="1.0" encoding="UTF-8"?>
<svg width="72px" height="72px" viewBox="0 0 72 72" version="1.1" xmlns="http://www.w3.org/2000/svg" xmlns:xlink="http://www.w3.org/1999/xlink">
    <!-- Generator: Sketch 63.1 (92452) - https://sketch.com -->
    <title>4</title>
    <desc>Created with Sketch.</desc>
    <defs>
        <linearGradient x1="50%" y1="100%" x2="50%" y2="0%" id="linearGradient-1">
            <stop stop-color="#FD785E" offset="0%"></stop>
            <stop stop-color="#FB9E68" offset="100%"></stop>
        </linearGradient>
    </defs>
    <g id="4" stroke="none" stroke-width="1" fill="none" fill-rule="evenodd">
        <g id="营销云" transform="translate(3.000000, 14.000000)" fill="url(#linearGradient-1)">
            <path d="M40.5,0 C50.1649831,0 58,7.83501688 58,17.5 C58,17.9952553 57.9794271,18.4857056 57.9390892,18.9705429 C62.6690813,20.9150775 66,25.5685499 66,31 C66,38.1797017 60.1797017,44 53,44 C52.6636751,44 52.3303332,43.9872282 52.0004329,43.9621433 L52,44 L12,44 L12.0001595,43.8582451 C5.21549345,42.8878544 0,37.0529991 0,30 C0,24.4048763 3.28221587,19.5763551 8.02626579,17.3348184 C8.00856329,17.0592796 8,16.7806398 8,16.5 C8,9.04415588 14.0441559,3 21.5,3 C24.0111697,3 26.3622004,3.68563685 28.3761014,4.87991997 C31.5204765,1.85815406 35.7932407,0 40.5,0 Z M45.9187878,15.5016773 C45.4341413,14.0615866 44.0615537,14.1631321 43.1101479,15.2420456 L43.1101479,15.2420456 L34.9092287,24.8339933 L34.9092502,24.8340446 L31.9961804,21.9146281 L31.9182909,21.8436619 C31.0413122,21.1120771 30.1320246,21.0589966 29.3577445,21.9936714 L29.3577445,21.9936714 L26.0384929,26.1304592 L22.1751705,23.352397 C21.7920694,23.010837 21.2560736,22.8637136 20.6981531,23.1995029 C20.3202454,23.4268248 20.1736977,23.7176145 20.0848458,24.0834064 C20.0208035,24.3482309 20.0011868,24.6470956 20,25.0538526 C20,25.1959709 20.0011131,25.338088 20.004071,25.4801762 L20.004071,25.4801762 L20.0055728,25.5639382 C20.0077097,25.683457 20.0081103,25.7102215 20.0081103,25.7554167 L20.0081103,31.9508013 C20.0104166,33.1566474 21.1839537,34.0451672 22.3240257,34.0451672 L22.3240257,34.0451672 L43.9755903,34.0451672 C45.1340759,34.046128 46.0747899,33.1092808 46.0786055,31.9508013 L46.0786055,31.9508013 L46.0820673,29.8529786 L46.0895678,25.1565117 L46.0901447,24.7468704 C46.095145,21.5157738 46.0987128,19.2058161 46.1000013,18.1471688 L46.1000013,18.1471688 L46.1002105,17.3443621 C46.0970657,16.3339754 46.0684895,15.9464746 45.9187878,15.5016773 Z M44.8046597,9.56127363 C44.8046597,8.58159633 43.6293914,9.18221007 43.4534188,9.18221007 L43.4534188,9.18221007 L41.5581071,9.81859519 L41.310876,9.88766703 C38.8981649,10.5702215 38.2674768,11.0129193 38.8833216,11.6712137 L38.8833216,11.6712137 L39.8485741,12.5689639 L34.3357272,18.767239 L31.4717006,16.1807274 L31.4179319,16.1320594 C31.216789,15.9421091 30.8013776,15.4981836 30.3177819,15.4981836 C29.7869797,15.4981836 29.3952226,15.958021 29.1644382,16.1807274 L29.1644382,16.1807274 L25.4534265,20.1704073 L22.9119174,18.351829 L22.7725516,18.2743869 C21.9991843,17.8512127 21.4981726,17.7044802 20.9652563,18.351829 C20.4015671,19.036104 20.7171638,19.6113306 21.4072066,20.1704073 L21.4072066,20.1704073 L24.3104671,22.2255387 L24.380643,22.2793103 C24.6917268,22.5066862 25.3425871,22.8692212 25.448,22.927 L25.448,22.927 C25.5119328,22.8956837 25.8741353,22.7158772 26.7948673,21.6393467 L26.7948673,21.6393467 L30.3183661,17.8718041 L33.2441293,20.3677326 L33.31152,20.4245746 C33.7126869,20.7660462 34.7471089,21.6882228 34.7471089,21.6393528 L34.7471089,21.6393528 L34.7778308,21.6092694 C35.3855174,20.9650482 44.8046597,10.2501642 44.8046597,10.2501642 C44.8606249,10.1791983 44.8046597,9.56127363 44.8046597,9.56127363 Z" id="形状结合"></path>
        </g>
    </g>
</svg>