<?xml version="1.0" encoding="UTF-8"?>
<svg width="16px" height="15px" viewBox="0 0 16 15" version="1.1" xmlns="http://www.w3.org/2000/svg" xmlns:xlink="http://www.w3.org/1999/xlink">
    <!-- Generator: Sketch 55.2 (78181) - https://sketchapp.com -->
    <title>biaogeshezhi</title>
    <desc>Created with Sketch.</desc>
    <g id="个性化" stroke="none" stroke-width="1" fill="none" fill-rule="evenodd">
        <g id="个性化设置-斑马线" transform="translate(-342.000000, -462.000000)" fill="#60626B" fill-rule="nonzero">
            <g id="编组-4" transform="translate(326.000000, 453.000000)">
                <g id="biaogeshezhi" transform="translate(16.000000, 9.000000)">
                    <path d="M0.00727696179,5.77899733 L4.46844463,5.77899733 L4.46844463,9.55717584 L0.00727696179,9.55717584 L0.00727696179,5.77899733 Z M5.68513723,10.8253095 L10.3086038,10.8253095 L10.3086038,14.9839341 L5.68513723,14.9839341 L5.68513723,10.8253095 Z M5.68513723,5.77899733 L10.3086038,5.77899733 L10.3086038,9.55717584 L5.68513723,9.55717584 L5.68513723,5.77899733 Z M11.5253156,10.8253095 L15.9867145,10.8253095 L15.9867145,14.9839341 L11.5253156,14.9839341 L11.5253156,10.8253095 Z M0.00727696179,10.8253095 L4.46844463,10.8253095 L4.46844463,14.9839341 L0.00727696179,14.9839341 L0.00727696179,10.8253095 Z M0.00727696179,0.00795419608 L15.9867145,0.00795419608 L15.9867145,4.51086369 L0.00727696179,4.51086369 L0.00727696179,0.00795419608 Z M11.5253156,5.77899733 L15.9867145,5.77899733 L15.9867145,9.55717584 L11.5253156,9.55717584 L11.5253156,5.77899733 Z" id="形状"></path>
                </g>
            </g>
        </g>
    </g>
</svg>