<?xml version="1.0" encoding="UTF-8"?>
<svg width="40px" height="36px" viewBox="0 0 40 36" version="1.1" xmlns="http://www.w3.org/2000/svg" xmlns:xlink="http://www.w3.org/1999/xlink">
    <!-- Generator: Sketch 55.2 (78181) - https://sketchapp.com -->
    <title>紧凑</title>
    <desc>Created with Sketch.</desc>
    <g id="个性化" stroke="none" stroke-width="1" fill="none" fill-rule="evenodd">
        <g id="个性化设置-竖向分割线" transform="translate(-342.000000, -519.000000)" fill="#9298A4" stroke="#5A5A5A" stroke-width="0.6">
            <g id="紧凑" transform="translate(342.000000, 519.000000)">
                <path d="M0.3,0.3 L0.3,6.1 L39.7,6.1 L39.7,0.3 L0.3,0.3 Z M0.3,9.1 L0.3,11.7 L39.7,11.7 L39.7,9.1 L0.3,9.1 Z M0.3,18.7 L0.3,21.3 L39.7,21.3 L39.7,18.7 L0.3,18.7 Z M0.3,28.3 L0.3,30.9 L39.7,30.9 L39.7,28.3 L0.3,28.3 Z M0.3,13.9 L0.3,16.5 L39.7,16.5 L39.7,13.9 L0.3,13.9 Z M0.3,23.5 L0.3,26.1 L39.7,26.1 L39.7,23.5 L0.3,23.5 Z M0.3,33.1 L0.3,35.7 L39.7,35.7 L39.7,33.1 L0.3,33.1 Z"></path>
            </g>
        </g>
    </g>
</svg>