<?xml version="1.0" encoding="UTF-8"?>
<svg width="16px" height="16px" viewBox="0 0 16 16" version="1.1" xmlns="http://www.w3.org/2000/svg" xmlns:xlink="http://www.w3.org/1999/xlink">
    <!-- Generator: Sketch 55.2 (78181) - https://sketchapp.com -->
    <title>tubiaofengge</title>
    <desc>Created with Sketch.</desc>
    <g id="个性化" stroke="none" stroke-width="1" fill="none" fill-rule="evenodd">
        <g id="个性化设置-斑马线" transform="translate(-342.000000, -289.000000)" fill="#60626B" fill-rule="nonzero">
            <g id="tubiaofengge" transform="translate(342.000000, 289.000000)">
                <path d="M8.27028326,0 C3.35606867,0 0,3.63574249 0,7.99064378 C0,12.3455451 3.75560515,15.9812876 7.99062661,15.9812876 C8.90954506,15.9812876 9.5088412,15.3420258 9.5088412,14.5829185 C9.5088412,13.4642232 8.58992275,13.7039485 8.58992275,12.7051159 C8.58992275,11.9859742 9.18923605,11.5065236 11.2667811,11.5065236 C13.3043948,11.5464721 15.9812704,10.3878283 15.9812704,7.11167382 C15.9812704,3.83551931 13.3043948,0 8.27028326,0 M3.11634335,7.99064378 C2.39718455,7.99064378 1.79788841,7.39133047 1.79788841,6.67218884 C1.79788841,5.95304721 2.39718455,5.35373391 3.11634335,5.35373391 C3.83550215,5.35373391 4.43479828,5.95304721 4.43479828,6.67218884 C4.43479828,7.39133047 3.83548498,7.99064378 3.11634335,7.99064378 M5.75325322,4.43481545 C5.03409442,4.43481545 4.43479828,3.83550215 4.43479828,3.11636052 C4.43479828,2.39721888 5.03409442,1.79790558 5.75325322,1.79790558 C6.47241202,1.79790558 7.07170815,2.39720172 7.07170815,3.11636052 C7.07170815,3.83551931 6.51236052,4.43481545 5.75325322,4.43481545 M10.228,4.43481545 C9.50885837,4.43481545 8.90954506,3.83550215 8.90954506,3.11636052 C8.90954506,2.39721888 9.50885837,1.79790558 10.228,1.79790558 C10.9471416,1.79790558 11.5464549,2.39720172 11.5464549,3.11636052 C11.5464549,3.83551931 10.9471588,4.43481545 10.228,4.43481545 M12.8649099,7.99064378 C12.1457682,7.99064378 11.5464549,7.39133047 11.5464549,6.67218884 C11.5464549,5.95304721 12.1457682,5.35373391 12.8649099,5.35373391 C13.5840515,5.35373391 14.1833648,5.95304721 14.1833648,6.67218884 C14.2233305,7.39133047 13.6240172,7.99064378 12.8649099,7.99064378" id="形状"></path>
            </g>
        </g>
    </g>
</svg>