<?xml version="1.0" standalone="no"?><!DOCTYPE svg PUBLIC "-//W3C//DTD SVG 1.1//EN" "http://www.w3.org/Graphics/SVG/1.1/DTD/svg11.dtd"><svg t="1616398841244" class="icon" viewBox="0 0 1024 1024" version="1.1" xmlns="http://www.w3.org/2000/svg" p-id="14546" xmlns:xlink="http://www.w3.org/1999/xlink" width="200" height="200"><defs><style type="text/css"></style></defs><path d="M459.3664 737.35168l-25.4976-75.264H216.8832l-25.4976 77.2096c-5.9392 22.2208-14.4384 43.6224-25.4976 63.7952-7.8848 11.0592-20.992 17.1008-34.4064 15.9744-13.7216-0.1024-26.7264-6.144-35.7376-16.5888-10.9568-10.9568-16.7936-26.0096-15.9744-41.472 0.1024-8.6016 1.4336-17.2032 3.7888-25.4976 2.56-8.9088 6.5536-21.0944 12.0832-36.352l135.8848-391.0656 14.0288-40.2432c4.608-13.5168 10.6496-26.5216 17.8176-38.912 5.9392-10.3424 14.2336-19.0464 24.2688-25.4976 11.1616-6.656 23.9616-9.9328 36.9664-9.5232 13.2096-0.512 26.3168 2.8672 37.6832 9.5232 9.8304 6.3488 18.2272 14.848 24.2688 24.8832 6.3488 10.3424 11.6736 21.1968 15.9744 32.5632l15.9744 46.592 139.6736 388.5056c8.8064 20.2752 14.336 41.7792 16.5888 63.7952-0.1024 14.2336-5.632 27.8528-15.36 38.2976-9.1136 10.9568-22.7328 17.3056-36.9664 17.2032-7.5776 0.2048-15.0528-1.536-21.7088-5.12-6.144-3.4816-11.3664-8.2944-15.36-14.0288-5.7344-8.8064-10.4448-18.2272-14.0288-28.0576l-11.9808-30.72z m-214.4256-167.1168H404.48l-80.384-248.832-79.1552 248.832z m616.96 190.0544l-16.5888-50.3808H700.5184l-17.2032 51.712c-4.096 14.2336-9.9328 27.9552-17.2032 40.8576-5.2224 7.4752-13.9264 11.5712-22.9376 10.8544-9.4208-0.1024-18.2272-4.3008-24.2688-11.4688-6.656-6.8608-10.24-15.9744-10.24-25.4976-0.8192-5.7344-0.8192-11.4688 0-17.2032 0-5.9392 2.7648-14.0288 8.2944-24.2688l93.184-260.9152 7.68-24.8832c2.9696-9.1136 6.7584-17.8176 11.4688-26.112 3.9936-6.656 9.4208-12.3904 15.9744-16.5888 7.4752-4.5056 16.1792-6.656 24.8832-6.3488 8.704-0.3072 17.408 1.9456 24.8832 6.3488 6.5536 4.1984 11.9808 9.9328 15.9744 16.5888 4.096 6.8608 7.5776 14.1312 10.24 21.7088l10.8544 31.232 93.184 259.072c5.8368 13.6192 9.4208 28.0576 10.8544 42.7008-0.1024 9.5232-3.6864 18.6368-10.24 25.4976-6.144 7.3728-15.2576 11.5712-24.8832 11.4688-5.12 0.2048-10.1376-0.9216-14.6432-3.1744-4.096-2.3552-7.5776-5.632-10.24-9.5232-3.6864-5.632-6.656-11.5712-8.9088-17.8176l-5.3248-23.8592z m-144.1792-111.616h106.496l-53.5552-165.2736-52.9408 165.2736z" p-id="14547" fill="#60626B"></path></svg>